# xmcd
#
# Track frame offsets:
#	150
#	12942
#	35181
#	50679
#	63109
#	82001
#	96266
#	116496
#	131303
#	145913
#
# Disc length: 2189 seconds
#
# Revision: 728641403
# Processed by: cddbd v1.5.2PL0 Copyright (c) Steve Scherf et al.
# Submitted via: EZCDAudioConverter 7.1.2.1
#
DISCID=87088b0a
DTITLE=Guy Clark - Old No1
DYEAR=1975
DGENRE=Country
TTITLE0=Rita Ballou
TTITLE1=L. A. Freeway
TTITLE2=She Ain't Going Nowhere
TTITLE3=A Nickel For The Fiddler
TTITLE4=That Old Time Feeling
TTITLE5=Texas - 1947
TTITLE6=Desperados Waiting For Thetrain
TTITLE7=Like A Coat From The Cold
TTITLE8=Instant Coffee Blues
TTITLE9=Let Him Roll
EXTD=
EXTT0=
EXTT1=
EXTT2=
EXTT3=
EXTT4=
EXTT5=
EXTT6=
EXTT7=
EXTT8=
EXTT9=
PLAYORDER=
